<svg xmlns="http://www.w3.org/2000/svg" width="16" height="14" fill="none" viewBox="0 0 16 14"><g fill-opacity=".9" filter="url(#a)" opacity=".8"><path fill="url(#b)" d="M5 5.1C5 5.04477 5.04477 5 5.1 5H5.9C5.95523 5 6 5.04477 6 5.1V6.3382C6 6.41253 5.92177 6.46088 5.85528 6.42764L5.05528 6.02764C5.0214 6.0107 5 5.97607 5 5.9382V5.1Z"/><path fill="url(#c)" d="M5.1 3C5.04477 3 5 3.04477 5 3.1V3.9C5 3.95523 5.04477 4 5.1 4H6C6.55228 4 7 4.44772 7 5V6.3382C7 6.41253 7.07823 6.46088 7.14472 6.42764L7.94472 6.02764C7.9786 6.0107 8 5.97607 8 5.9382V5C8 3.89543 7.10457 3 6 3H5.1Z"/><path fill="url(#d)" d="M7.5 9.1C7.5 9.04477 7.54477 9 7.6 9H8.4C8.45523 9 8.5 9.04477 8.5 9.1V10.3382C8.5 10.4125 8.42177 10.4609 8.35528 10.4276L7.55528 10.0276C7.5214 10.0107 7.5 9.97607 7.5 9.9382V9.1Z"/><path fill="url(#e)" d="M7.6 7C7.54477 7 7.5 7.04477 7.5 7.1V7.9C7.5 7.95523 7.54477 8 7.6 8H8.5C9.05228 8 9.5 8.44772 9.5 9V9.9382C9.5 9.97607 9.5214 10.0107 9.55528 10.0276L10.3553 10.4276C10.4218 10.4609 10.5 10.4125 10.5 10.3382V9C10.5 7.89543 9.60457 7 8.5 7H7.6Z"/><path fill="url(#f)" d="M9 3.1C9 3.04477 9.04477 3 9.1 3H9.9C9.95523 3 10 3.04477 10 3.1V5.9382C10 5.97607 9.9786 6.0107 9.94472 6.02764L9.14472 6.42764C9.07823 6.46088 9 6.41253 9 6.3382V3.1Z"/><path fill="url(#g)" d="M11.5 7.1C11.5 7.04477 11.5448 7 11.6 7H12.4C12.4552 7 12.5 7.04477 12.5 7.1V8.4382C12.5 8.47607 12.4786 8.5107 12.4447 8.52764L11.6447 8.92764C11.5782 8.96088 11.5 8.91253 11.5 8.8382V7.1Z"/></g><g fill-opacity=".7" filter="url(#h)" style="mix-blend-mode:color-dodge"><path fill="url(#i)" d="M5 5.1C5 5.04477 5.04477 5 5.1 5H5.9C5.95523 5 6 5.04477 6 5.1V6.3382C6 6.41253 5.92177 6.46088 5.85528 6.42764L5.05528 6.02764C5.0214 6.0107 5 5.97607 5 5.9382V5.1Z"/><path fill="url(#j)" d="M5.1 3C5.04477 3 5 3.04477 5 3.1V3.9C5 3.95523 5.04477 4 5.1 4H6C6.55228 4 7 4.44772 7 5V6.3382C7 6.41253 7.07823 6.46088 7.14472 6.42764L7.94472 6.02764C7.9786 6.0107 8 5.97607 8 5.9382V5C8 3.89543 7.10457 3 6 3H5.1Z"/><path fill="url(#k)" d="M7.5 9.1C7.5 9.04477 7.54477 9 7.6 9H8.4C8.45523 9 8.5 9.04477 8.5 9.1V10.3382C8.5 10.4125 8.42177 10.4609 8.35528 10.4276L7.55528 10.0276C7.5214 10.0107 7.5 9.97607 7.5 9.9382V9.1Z"/><path fill="url(#l)" d="M7.6 7C7.54477 7 7.5 7.04477 7.5 7.1V7.9C7.5 7.95523 7.54477 8 7.6 8H8.5C9.05228 8 9.5 8.44772 9.5 9V9.9382C9.5 9.97607 9.5214 10.0107 9.55528 10.0276L10.3553 10.4276C10.4218 10.4609 10.5 10.4125 10.5 10.3382V9C10.5 7.89543 9.60457 7 8.5 7H7.6Z"/><path fill="url(#m)" d="M9 3.1C9 3.04477 9.04477 3 9.1 3H9.9C9.95523 3 10 3.04477 10 3.1V5.9382C10 5.97607 9.9786 6.0107 9.94472 6.02764L9.14472 6.42764C9.07823 6.46088 9 6.41253 9 6.3382V3.1Z"/><path fill="url(#n)" d="M11.5 7.1C11.5 7.04477 11.5448 7 11.6 7H12.4C12.4552 7 12.5 7.04477 12.5 7.1V8.4382C12.5 8.47607 12.4786 8.5107 12.4447 8.52764L11.6447 8.92764C11.5782 8.96088 11.5 8.91253 11.5 8.8382V7.1Z"/></g><path fill="url(#o)" d="M5 5.1C5 5.04477 5.04477 5 5.1 5H5.9C5.95523 5 6 5.04477 6 5.1V6.3382C6 6.41253 5.92177 6.46088 5.85528 6.42764L5.05528 6.02764C5.0214 6.0107 5 5.97607 5 5.9382V5.1Z"/><path fill="url(#p)" d="M5.1 3C5.04477 3 5 3.04477 5 3.1V3.9C5 3.95523 5.04477 4 5.1 4H6C6.55228 4 7 4.44772 7 5V6.3382C7 6.41253 7.07823 6.46088 7.14472 6.42764L7.94472 6.02764C7.9786 6.0107 8 5.97607 8 5.9382V5C8 3.89543 7.10457 3 6 3H5.1Z"/><path fill="url(#q)" d="M7.5 9.1C7.5 9.04477 7.54477 9 7.6 9H8.4C8.45523 9 8.5 9.04477 8.5 9.1V10.3382C8.5 10.4125 8.42177 10.4609 8.35528 10.4276L7.55528 10.0276C7.5214 10.0107 7.5 9.97607 7.5 9.9382V9.1Z"/><path fill="url(#r)" d="M7.6 7C7.54477 7 7.5 7.04477 7.5 7.1V7.9C7.5 7.95523 7.54477 8 7.6 8H8.5C9.05228 8 9.5 8.44772 9.5 9V9.9382C9.5 9.97607 9.5214 10.0107 9.55528 10.0276L10.3553 10.4276C10.4218 10.4609 10.5 10.4125 10.5 10.3382V9C10.5 7.89543 9.60457 7 8.5 7H7.6Z"/><path fill="url(#s)" d="M9 3.1C9 3.04477 9.04477 3 9.1 3H9.9C9.95523 3 10 3.04477 10 3.1V5.9382C10 5.97607 9.9786 6.0107 9.94472 6.02764L9.14472 6.42764C9.07823 6.46088 9 6.41253 9 6.3382V3.1Z"/><path fill="url(#t)" d="M11.5 7.1C11.5 7.04477 11.5448 7 11.6 7H12.4C12.4552 7 12.5 7.04477 12.5 7.1V8.4382C12.5 8.47607 12.4786 8.5107 12.4447 8.52764L11.6447 8.92764C11.5782 8.96088 11.5 8.91253 11.5 8.8382V7.1Z"/><path fill="#fff" d="M1.34 10.04C1.18 10.04 1.03867 10.0093 0.916 9.948C0.796 9.884 0.697333 9.79867 0.62 9.692L0.884 9.448C0.934667 9.52267 0.997333 9.58 1.072 9.62C1.14933 9.66 1.23467 9.68 1.328 9.68C1.42133 9.68 1.504 9.66 1.576 9.62C1.648 9.58 1.704 9.52133 1.744 9.444C1.78667 9.364 1.808 9.26667 1.808 9.152V7.224H2.184V9.132C2.184 9.316 2.14667 9.476 2.072 9.612C2 9.748 1.9 9.85333 1.772 9.928C1.64667 10.0027 1.50267 10.04 1.34 10.04ZM3.55247 10.04C3.37914 10.04 3.2218 9.99733 3.08047 9.912C2.93914 9.824 2.82714 9.70533 2.74447 9.556C2.66447 9.40667 2.62447 9.23867 2.62447 9.052C2.62447 8.86533 2.66447 8.69733 2.74447 8.548C2.82714 8.39867 2.9378 8.28 3.07647 8.192C3.2178 8.104 3.37647 8.06 3.55247 8.06C3.69647 8.06 3.82447 8.09067 3.93647 8.152C4.05114 8.21067 4.14314 8.29333 4.21247 8.4C4.2818 8.504 4.32047 8.62533 4.32847 8.764V9.336C4.32047 9.472 4.2818 9.59333 4.21247 9.7C4.1458 9.80667 4.05514 9.89067 3.94047 9.952C3.82847 10.0107 3.69914 10.04 3.55247 10.04ZM3.61247 9.7C3.79114 9.7 3.93514 9.64 4.04447 9.52C4.1538 9.39733 4.20847 9.24133 4.20847 9.052C4.20847 8.92133 4.18314 8.808 4.13247 8.712C4.08447 8.61333 4.01514 8.53733 3.92447 8.484C3.8338 8.428 3.72847 8.4 3.60847 8.4C3.48847 8.4 3.3818 8.428 3.28847 8.484C3.1978 8.54 3.1258 8.61733 3.07247 8.716C3.0218 8.812 2.99647 8.92267 2.99647 9.048C2.99647 9.176 3.0218 9.28933 3.07247 9.388C3.1258 9.484 3.19914 9.56 3.29247 9.616C3.3858 9.672 3.49247 9.7 3.61247 9.7ZM4.18447 10V9.488L4.25247 9.024L4.18447 8.564V8.1H4.54847V10H4.18447ZM6.41659 10V8.892C6.41659 8.748 6.37126 8.62933 6.28059 8.536C6.18993 8.44267 6.07259 8.396 5.92859 8.396C5.83259 8.396 5.74726 8.41733 5.67259 8.46C5.59793 8.50267 5.53926 8.56133 5.49659 8.636C5.45393 8.71067 5.43259 8.796 5.43259 8.892L5.28459 8.808C5.28459 8.664 5.31659 8.536 5.38059 8.424C5.44459 8.312 5.53393 8.224 5.64859 8.16C5.76326 8.09333 5.89259 8.06 6.03659 8.06C6.18059 8.06 6.30726 8.092 6.41659 8.156C6.52859 8.22 6.61659 8.30933 6.68059 8.424C6.74459 8.53867 6.77659 8.67067 6.77659 8.82V10H6.41659ZM5.07259 10V7.144H5.43259V10H5.07259Z"/><defs><linearGradient id="b" x1="6" x2="11.5" y1="3.5" y2="10.5" gradientUnits="userSpaceOnUse"><stop stop-color="#696FFF"/><stop offset=".3" stop-color="#F36FFF"/><stop offset=".9" stop-color="#FF8F6B"/></linearGradient><linearGradient id="c" x1="6" x2="11.5" y1="3.5" y2="10.5" gradientUnits="userSpaceOnUse"><stop stop-color="#696FFF"/><stop offset=".3" stop-color="#F36FFF"/><stop offset=".9" stop-color="#FF8F6B"/></linearGradient><linearGradient id="d" x1="6" x2="11.5" y1="3.5" y2="10.5" gradientUnits="userSpaceOnUse"><stop stop-color="#696FFF"/><stop offset=".3" stop-color="#F36FFF"/><stop offset=".9" stop-color="#FF8F6B"/></linearGradient><linearGradient id="e" x1="6" x2="11.5" y1="3.5" y2="10.5" gradientUnits="userSpaceOnUse"><stop stop-color="#696FFF"/><stop offset=".3" stop-color="#F36FFF"/><stop offset=".9" stop-color="#FF8F6B"/></linearGradient><linearGradient id="f" x1="6" x2="11.5" y1="3.5" y2="10.5" gradientUnits="userSpaceOnUse"><stop stop-color="#696FFF"/><stop offset=".3" stop-color="#F36FFF"/><stop offset=".9" stop-color="#FF8F6B"/></linearGradient><linearGradient id="g" x1="6" x2="11.5" y1="3.5" y2="10.5" gradientUnits="userSpaceOnUse"><stop stop-color="#696FFF"/><stop offset=".3" stop-color="#F36FFF"/><stop offset=".9" stop-color="#FF8F6B"/></linearGradient><linearGradient id="i" x1="6" x2="11.5" y1="3.5" y2="10.5" gradientUnits="userSpaceOnUse"><stop stop-color="#696FFF"/><stop offset=".3" stop-color="#F36FFF"/><stop offset=".9" stop-color="#FF8F6B"/></linearGradient><linearGradient id="j" x1="6" x2="11.5" y1="3.5" y2="10.5" gradientUnits="userSpaceOnUse"><stop stop-color="#696FFF"/><stop offset=".3" stop-color="#F36FFF"/><stop offset=".9" stop-color="#FF8F6B"/></linearGradient><linearGradient id="k" x1="6" x2="11.5" y1="3.5" y2="10.5" gradientUnits="userSpaceOnUse"><stop stop-color="#696FFF"/><stop offset=".3" stop-color="#F36FFF"/><stop offset=".9" stop-color="#FF8F6B"/></linearGradient><linearGradient id="l" x1="6" x2="11.5" y1="3.5" y2="10.5" gradientUnits="userSpaceOnUse"><stop stop-color="#696FFF"/><stop offset=".3" stop-color="#F36FFF"/><stop offset=".9" stop-color="#FF8F6B"/></linearGradient><linearGradient id="m" x1="6" x2="11.5" y1="3.5" y2="10.5" gradientUnits="userSpaceOnUse"><stop stop-color="#696FFF"/><stop offset=".3" stop-color="#F36FFF"/><stop offset=".9" stop-color="#FF8F6B"/></linearGradient><linearGradient id="n" x1="6" x2="11.5" y1="3.5" y2="10.5" gradientUnits="userSpaceOnUse"><stop stop-color="#696FFF"/><stop offset=".3" stop-color="#F36FFF"/><stop offset=".9" stop-color="#FF8F6B"/></linearGradient><linearGradient id="o" x1="6" x2="11.5" y1="3.5" y2="10.5" gradientUnits="userSpaceOnUse"><stop stop-color="#696FFF"/><stop offset=".3" stop-color="#F36FFF"/><stop offset=".9" stop-color="#FF8F6B"/></linearGradient><linearGradient id="p" x1="6" x2="11.5" y1="3.5" y2="10.5" gradientUnits="userSpaceOnUse"><stop stop-color="#696FFF"/><stop offset=".3" stop-color="#F36FFF"/><stop offset=".9" stop-color="#FF8F6B"/></linearGradient><linearGradient id="q" x1="6" x2="11.5" y1="3.5" y2="10.5" gradientUnits="userSpaceOnUse"><stop stop-color="#696FFF"/><stop offset=".3" stop-color="#F36FFF"/><stop offset=".9" stop-color="#FF8F6B"/></linearGradient><linearGradient id="r" x1="6" x2="11.5" y1="3.5" y2="10.5" gradientUnits="userSpaceOnUse"><stop stop-color="#696FFF"/><stop offset=".3" stop-color="#F36FFF"/><stop offset=".9" stop-color="#FF8F6B"/></linearGradient><linearGradient id="s" x1="6" x2="11.5" y1="3.5" y2="10.5" gradientUnits="userSpaceOnUse"><stop stop-color="#696FFF"/><stop offset=".3" stop-color="#F36FFF"/><stop offset=".9" stop-color="#FF8F6B"/></linearGradient><linearGradient id="t" x1="6" x2="11.5" y1="3.5" y2="10.5" gradientUnits="userSpaceOnUse"><stop stop-color="#696FFF"/><stop offset=".3" stop-color="#F36FFF"/><stop offset=".9" stop-color="#FF8F6B"/></linearGradient><filter id="a" width="13.5" height="13.5" x="2" y="0" color-interpolation-filters="sRGB" filterUnits="userSpaceOnUse"><feFlood flood-opacity="0" result="BackgroundImageFix"/><feBlend in="SourceGraphic" in2="BackgroundImageFix" result="shape"/><feGaussianBlur result="effect1_foregroundBlur_11_129" stdDeviation="1.5"/></filter><filter id="h" width="7.9" height="7.9" x="4.8" y="2.8" color-interpolation-filters="sRGB" filterUnits="userSpaceOnUse"><feFlood flood-opacity="0" result="BackgroundImageFix"/><feBlend in="SourceGraphic" in2="BackgroundImageFix" result="shape"/><feGaussianBlur result="effect1_foregroundBlur_11_129" stdDeviation=".1"/></filter></defs></svg>